<svg width="300" height="61²" viewBox="0 0 113 23" fill="none" xmlns="http://www.w3.org/2000/svg">
<g clip-path="url(#clip0_6231_10111)">
<path d="M3.94318 22.0525C5.41059 21.7062 6.3194 20.2358 5.97306 18.7684C5.62672 17.301 4.15638 16.3922 2.68897 16.7386C1.22156 17.0849 0.312747 18.5552 0.659088 20.0226C1.00543 21.4901 2.47577 22.3989 3.94318 22.0525Z" fill="#0D0E0E"/>
<path d="M20.1976 0C19.1414 0 18.0279 0.72943 17.2799 1.34278C16.8801 1.66952 16.3742 1.85009 15.8554 1.85009C15.3367 1.85009 14.8308 1.66952 14.431 1.34278C13.6829 0.730863 12.5694 0 11.5132 0H11.4144C10.3582 0 9.2447 0.72943 8.49664 1.34278C8.09681 1.66952 7.59094 1.85009 7.07217 1.85009C6.5534 1.85009 6.04753 1.66952 5.64771 1.34278C4.89965 0.72943 3.78616 0 2.72999 0C1.22384 0 0 1.22384 0 2.72999C0 4.23614 1.22384 5.45998 2.72999 5.45998C3.78616 5.45998 4.89965 4.73055 5.64771 4.11719C6.04753 3.79046 6.5534 3.60989 7.07217 3.60989C7.59094 3.60989 8.09681 3.79046 8.49664 4.11719C9.2447 4.72911 10.3582 5.45998 11.4144 5.45998H11.5132C12.5694 5.45998 13.6829 4.73055 14.431 4.11719C14.8308 3.79046 15.3367 3.60989 15.8554 3.60989C16.3742 3.60989 16.8801 3.79046 17.2799 4.11719C18.0279 4.72911 19.1414 5.45998 20.1976 5.45998C21.7023 5.45998 22.9276 4.23614 22.9276 2.72999C22.9276 1.22384 21.7023 0 20.1976 0Z" fill="#0D0E0E"/>
<path d="M15.8052 8.33472C14.7491 8.33472 13.6356 9.06415 12.8875 9.6775C12.4877 10.0042 11.9818 10.1848 11.463 10.1848C10.9443 10.1848 10.4384 10.0042 10.0386 9.6775C9.29052 9.06558 8.17703 8.33472 7.12086 8.33472C5.61614 8.33472 4.39087 9.55855 4.39087 11.0647C4.39087 12.5709 5.61471 13.7947 7.12086 13.7947C8.17703 13.7947 9.29052 13.0653 10.0386 12.4519C10.4384 12.1252 10.9443 11.9446 11.463 11.9446C11.9818 11.9446 12.4877 12.1252 12.8875 12.4519C13.6356 13.0638 14.7491 13.7947 15.8052 13.7947C17.3099 13.7947 18.5352 12.5709 18.5352 11.0647C18.5352 9.55855 17.3114 8.33472 15.8052 8.33472Z" fill="#0D0E0E"/>
<path d="M31.8915 21.6794V0.424194H46.6363V3.24876H35.1617V9.64023H44.4365V12.4648H35.1617V21.6808H31.8915V21.6794ZM48.6282 21.6794V0.424194H51.5417V21.6794H48.6282ZM59.5983 22.095C56.8039 22.095 54.5454 20.49 54.5454 17.0119V6.51902H57.4588V16.2094C57.4588 18.2601 58.3501 19.6287 60.5499 19.6287C63.0463 19.6287 64.6528 18.1125 64.6528 15.8239V6.51902H67.5662V21.6794H64.6528V19.7763H64.5926C63.7901 20.9356 62.2151 22.095 59.5983 22.095ZM74.6685 21.6794L69.2586 6.51902H72.3799L76.3638 18.6771H76.3939L80.3176 6.51902H83.35L77.9401 21.6794H74.6699H74.6685ZM91.2762 22.1251C86.4611 22.1251 83.7856 18.7058 83.7856 14.0684C83.7856 9.431 86.6388 6.04181 91.2762 6.04181C95.9136 6.04181 98.4702 9.07417 98.4702 13.7703C98.4702 14.1859 98.4702 14.633 98.4401 14.8695H86.7864C86.8452 17.396 88.3327 19.7448 91.335 19.7448C94.0105 19.7448 95.0509 18.0208 95.3189 17.0105H98.2911C97.4886 19.9239 95.2587 22.1237 91.2748 22.1237L91.2762 22.1251ZM86.7879 12.5823H95.4379C95.4379 10.2049 93.7726 8.42069 91.1874 8.42069C88.7497 8.42069 86.9656 10.0859 86.7879 12.5823ZM106.758 22.095C102.15 22.095 99.8603 19.7175 99.7714 16.625H102.715C102.834 18.3791 103.904 19.7462 106.728 19.7462C109.284 19.7462 109.968 18.6169 109.968 17.5164C109.968 15.6132 107.946 15.4054 105.984 14.9899C103.338 14.365 100.306 13.5926 100.306 10.4413C100.306 7.82597 102.417 6.0719 106.073 6.0719C110.234 6.0719 112.226 8.30175 112.434 10.9171H109.49C109.283 9.75774 108.658 8.42069 106.131 8.42069C104.17 8.42069 103.337 9.19312 103.337 10.3238C103.337 11.8987 105.031 12.0478 107.172 12.5236C109.966 13.177 112.999 13.9795 112.999 17.3687C112.999 20.3123 110.739 22.095 106.756 22.095H106.758Z" fill="#0D0E0E"/>
</g>
<defs>
<clipPath id="clip0_6231_10111">
<rect width="113" height="22.1251" fill="white"/>
</clipPath>
</defs>
</svg>
